<?xml version="1.0" encoding="UTF-8"?>
<svg id="Layer_1" data-name="Layer 1" xmlns="http://www.w3.org/2000/svg" viewBox="0 0 50 44.45">
    <path
        d="M47.21,24.97c1.48,0,2.78-1.22,2.78-2.79,.09-.78-.26-1.48-.95-2.08l-4.58-4.04V5.56c0-1.54-1.24-2.78-2.78-2.78h-2.78c-1.54,0-2.78,1.24-2.78,2.78v3.19L26.87,.61c-.52-.43-1.22-.61-1.82-.61s-1.3,.09-1.91,.69L.87,20.1c-.61,.61-.87,1.3-.87,2.08,0,1.56,1.22,2.79,2.78,2.79h2.78v6.05c0,.08,0,.16,0,.24v9.71c0,1.92,1.55,3.47,3.47,3.47h1.39c.1,0,.21,0,.31-.02,.13,0,.26,.02,.39,.02h4.86c1.92,0,3.47-1.55,3.47-3.47v-7.64c0-1.54,1.24-2.78,2.78-2.78h5.56c1.54,0,2.78,1.24,2.78,2.78v7.64c0,1.92,1.55,3.47,3.47,3.47h4.9c.12,0,.24,0,.36,0,.1,0,.19,0,.29,0h1.39c1.92,0,3.47-1.55,3.47-3.47v-1.41c.03-.23,.04-.46,.04-.7l-.06-13.91h2.78Z" />
</svg>