<?xml version="1.0" encoding="UTF-8"?>
<svg id="Layer_1" data-name="Layer 1" xmlns="http://www.w3.org/2000/svg" viewBox="0 0 809.52 256">
    <g>
        <path style="fill:#fff"
            d="M134,205.48c7.34-.26,14.54-.51,21.98-.77v-13.51c3.2,1.71,6.07,3.23,8.92,4.78,4.43,2.41,8.95,4.67,13.26,7.28,5.95,3.6,12.38,5.82,18.99,7.8,7.7,2.3,14.85,5.88,20.93,11.23,2.27,1.99,4.19,4.38,6.27,6.58-.13,.14-.27,.29-.4,.43-3.37-1.19-6.69-2.52-10.11-3.53-12.42-3.69-25.2-5.25-38.07-6.19-19.43-1.41-38.88-1.33-58.31-.32-16.14,.83-32.26,2.09-48.36,3.52-12.22,1.08-24.39,2.74-36.58,4.13-.27,.03-.54,0-.88-.27,2.34-.7,4.67-1.47,7.03-2.1,11.65-3.08,23.31-6.18,35-9.13,1.79-.45,2.19-1.18,2.19-2.87-.05-19.18-.02-38.36-.07-57.53,0-1.42,.41-2.39,1.46-3.34,3.18-2.89,6.23-5.92,9.39-8.84,.55-.51,1.37-1.04,2.07-1.05,8.25-.07,16.51-.05,25.12-.05-.5,.59-.78,.99-1.13,1.32-3.76,3.58-7.56,7.11-11.26,10.74-.6,.59-1.09,1.6-1.09,2.42-.06,17.4-.05,34.81-.04,52.21,0,.4,.07,.8,.12,1.37,6.81-1,13.51-1.98,20.32-2.98V87.22c-.66,.36-1.19,.6-1.66,.92-7.79,5.15-15.56,10.33-23.39,15.44-1.1,.72-1.53,1.46-1.52,2.79,.07,8.12,.03,16.24,.03,24.36,0,.73,0,1.47,0,2.32h-5.67c-.04-.69-.11-1.4-.11-2.12,0-9.08,.02-18.15-.04-27.23,0-1.37,.43-2.16,1.6-2.93,11.75-7.7,23.46-15.46,35.13-23.27,1.22-.82,2.02-.81,3.2,.05,6.9,5,13.9,9.88,20.79,14.9,.67,.49,1.22,1.62,1.22,2.46,.08,9.69,.03,19.38,.08,29.07,0,1.28-.38,1.93-1.55,2.46-4.46,2.04-8.85,4.23-13.31,6.27-1.21,.55-1.71,1.18-1.71,2.59,.05,22.8,.04,45.59,.04,68.39,0,.6,.08,1.19,.12,1.79Z" />
        <path style="fill:#fff"
            d="M168.67,123.84c-1.96-1.46-3.7-2.55-5.14-3.95-.59-.57-.72-1.82-.73-2.76-.03-18.77-.06-37.53,.04-56.3,.01-2.19-.67-3.41-2.46-4.6-8.74-5.82-17.39-11.78-26.07-17.68-.54-.37-1.11-.7-2.01-1.27,0,1.05,0,1.76,0,2.48,0,7.78-.04,15.56,.04,23.34,.02,1.43-.48,2.17-1.67,2.87-6.12,3.56-12.18,7.22-18.48,10.96-.09-.63-.21-1.05-.21-1.47-.01-11.12-.03-22.25,.03-33.37,0-.78,.38-1.76,.92-2.3,4.4-4.37,8.89-8.66,13.48-13.1,5.09,3.44,10.16,6.87,15.23,10.3,8.64,5.85,17.29,11.68,25.9,17.57,.55,.37,1.09,1.22,1.09,1.85,.06,22.31,.05,44.63,.05,67.44Z" />
        <path style="fill:#fff"
            d="M188.41,153.24c-1.92-1.05-3.51-1.93-5.11-2.8-8.6-4.69-17.2-9.39-25.82-14.04-1.01-.54-1.51-1.12-1.48-2.34,.09-3.24,.03-6.49,.03-10.01,.82,.42,1.36,.65,1.87,.95,9.67,5.7,19.33,11.42,29.02,17.09,1.05,.61,1.58,1.25,1.53,2.54-.11,2.72-.03,5.44-.03,8.61Z" />
        <path style="fill:#fff"
            d="M156.04,142.2c5.14,2.78,9.92,5.35,14.69,7.94,5.38,2.92,10.74,5.89,16.15,8.77,1.1,.58,1.62,1.2,1.57,2.5-.1,2.58-.03,5.17-.03,8.1-.78-.4-1.36-.68-1.92-.99-9.62-5.24-19.23-10.51-28.88-15.71-1.17-.63-1.68-1.3-1.61-2.67,.12-2.51,.04-5.03,.04-7.95Z" />
        <path style="fill:#fff"
            d="M188.41,202.23c-4.2-2.28-8.07-4.36-11.94-6.47-6.28-3.42-12.53-6.88-18.83-10.25-1.14-.61-1.73-1.24-1.65-2.64,.14-2.51,.04-5.04,.04-7.85,.68,.3,1.2,.5,1.69,.77,9.75,5.29,19.5,10.6,29.26,15.86,1.02,.55,1.5,1.13,1.45,2.34-.1,2.58-.03,5.18-.03,8.24Z" />
        <path style="fill:#fff"
            d="M156.03,158.53c6.69,3.62,13.03,7.05,19.36,10.49,3.83,2.08,7.63,4.22,11.49,6.23,1.11,.58,1.61,1.21,1.56,2.5-.1,2.58-.03,5.17-.03,8.13-2.59-1.4-4.96-2.66-7.32-3.95-7.89-4.3-15.77-8.63-23.68-12.89-1.05-.56-1.44-1.2-1.41-2.37,.08-2.59,.02-5.18,.02-8.14Z" />
    </g>
    <g>
        <path
            d="M262.78,115.8c2.85-5.16,6.82-9.18,11.92-12.06,5.1-2.88,10.88-4.32,17.34-4.32,7.92,0,14.69,2.09,20.33,6.27,5.64,4.18,9.41,9.88,11.3,17.1h-17.86c-1.33-2.79-3.22-4.91-5.65-6.36-2.44-1.46-5.21-2.19-8.31-2.19-5,0-9.06,1.74-12.16,5.23-3.1,3.48-4.66,8.14-4.66,13.96s1.55,10.48,4.66,13.96c3.1,3.48,7.16,5.23,12.16,5.23,3.1,0,5.87-.73,8.31-2.19,2.44-1.46,4.32-3.58,5.65-6.36h17.86c-1.9,7.22-5.67,12.9-11.3,17.05-5.64,4.15-12.41,6.22-20.33,6.22-6.46,0-12.24-1.44-17.34-4.32-5.1-2.88-9.07-6.89-11.92-12.02-2.85-5.13-4.28-10.99-4.28-17.57s1.42-12.46,4.28-17.62Z"
            style="fill: #fff;" />
        <path
            d="M347.94,163.15c-5.22-2.91-9.37-6.98-12.45-12.21-3.07-5.23-4.61-11.1-4.61-17.62s1.54-12.38,4.61-17.57c3.07-5.19,7.22-9.25,12.45-12.16,5.22-2.91,10.97-4.37,17.24-4.37s12.02,1.46,17.24,4.37c5.22,2.91,9.34,6.97,12.35,12.16,3.01,5.19,4.51,11.05,4.51,17.57s-1.52,12.4-4.56,17.62-7.16,9.3-12.35,12.21c-5.19,2.91-10.92,4.37-17.2,4.37s-12.02-1.46-17.24-4.37Zm30.02-15.77c3.2-3.55,4.8-8.23,4.8-14.06s-1.6-10.59-4.8-14.11-7.46-5.27-12.78-5.27-9.67,1.74-12.87,5.23c-3.2,3.48-4.8,8.2-4.8,14.15s1.6,10.59,4.8,14.11c3.2,3.52,7.49,5.27,12.87,5.27s9.58-1.77,12.78-5.32Z"
            style="fill: #fff;" />
        <path
            d="M483.84,100.17v66.69h-16.25v-40l-14.92,40h-13.11l-15.01-40.09v40.09h-16.25V100.17h19.19l18.71,46.17,18.53-46.17h19.09Z"
            style="fill: #fff;" />
        <path
            d="M543.69,132.23c-1.77,3.2-4.5,5.78-8.17,7.74-3.67,1.96-8.23,2.94-13.68,2.94h-10.07v23.94h-16.25V100.17h26.32c5.32,0,9.82,.92,13.49,2.75,3.67,1.84,6.43,4.37,8.26,7.6,1.84,3.23,2.75,6.94,2.75,11.11,0,3.86-.89,7.4-2.66,10.59Zm-16.15-4.42c1.52-1.46,2.28-3.52,2.28-6.18s-.76-4.72-2.28-6.17c-1.52-1.46-3.83-2.19-6.94-2.19h-8.83v16.72h8.83c3.1,0,5.42-.73,6.94-2.19Z"
            style="fill: #fff;" />
        <path
            d="M596.32,155.08h-24.89l-3.99,11.78h-17.01l24.13-66.69h18.81l24.13,66.69h-17.2l-3.99-11.78Zm-4.18-12.54l-8.26-24.42-8.17,24.42h16.43Z"
            style="fill: #fff;" />
        <path d="M684.48,166.86h-16.25l-27.17-41.13v41.13h-16.25V100.17h16.25l27.17,41.32v-41.32h16.25v66.69Z"
            style="fill: #fff;" />
        <path d="M753.45,100.17l-23.08,44.65v22.04h-16.25v-22.04l-23.08-44.65h18.43l12.92,27.93,12.83-27.93h18.24Z"
            style="fill: #fff;" />
    </g>
</svg>